<?xml version="1.0" encoding="utf-8"?>
<!-- Generator: Adobe Illustrator 19.2.1, SVG Export Plug-In . SVG Version: 6.00 Build 0)  -->
<svg version="1.1" id="Layer_1" xmlns="http://www.w3.org/2000/svg" xmlns:xlink="http://www.w3.org/1999/xlink" x="0px" y="0px"
	 viewBox="0 0 24 24" style="enable-background:new 0 0 24 24;" xml:space="preserve">
<style type="text/css">
	.st0{fill:#6A64F1;}
</style>
<path class="st0" d="M12.5,2L12.5,2c-0.3-1.1-1.3-2-2.5-2H7C5.8,0,4.8,0.9,4.6,2H4.5C2,2,0,4,0,6.5v13C0,22,2,24,4.5,24h8
	c2.5,0,4.5-2,4.5-4.5v-13C17,4,15,2,12.5,2z M16,19.5c0,1.9-1.6,3.5-3.5,3.5h-8C2.6,23,1,21.4,1,19.5v-13C1,4.6,2.6,3,4.5,3H5
	c0.3,0,0.5-0.2,0.5-0.5C5.5,1.7,6.2,1,7,1h3c0.8,0,1.5,0.7,1.5,1.5C11.5,2.8,11.7,3,12,3h0.5C14.4,3,16,4.6,16,6.5V19.5z M21.5,0
	C20.1,0,19,1.1,19,2.5V20c0,1.1,0.4,2.1,1.2,2.8l1,1c0.1,0.1,0.2,0.1,0.4,0.1s0.3,0,0.4-0.1l1-1c0.8-0.8,1.2-1.8,1.2-2.8V2.5
	C24,1.1,22.9,0,21.5,0L21.5,0z M23,20c0,0.8-0.3,1.6-0.9,2.1l-0.6,0.6l-0.6-0.6C20.3,21.6,20,20.9,20,20V2.5C20,1.7,20.7,1,21.5,1
	S23,1.7,23,2.5V20z M9.2,5.3c0.2,0.2,0.2,0.5,0,0.7L6.6,8.6C6.3,8.8,6,9,5.6,9l0,0C5.2,9,4.8,8.8,4.5,8.6L3.1,7.2C3,7,3,6.7,3.1,6.5
	s0.5-0.2,0.7,0l1.3,1.3C5.3,7.9,5.4,8,5.6,8s0.3-0.1,0.4-0.2l2.5-2.5C8.7,5.1,9,5.1,9.2,5.3L9.2,5.3z M9.2,11.3
	c0.2,0.2,0.2,0.5,0,0.7l-2.5,2.5C6.3,14.8,6,15,5.6,15l0,0c-0.4,0-0.8-0.2-1.1-0.4l-1.3-1.3C3,13,3,12.7,3.1,12.5s0.5-0.2,0.7,0
	l1.3,1.3C5.3,13.9,5.4,14,5.6,14s0.3-0.1,0.4-0.2l2.5-2.5C8.7,11.1,9,11.1,9.2,11.3L9.2,11.3z M9.2,17.3c0.2,0.2,0.2,0.5,0,0.7
	l-2.5,2.5C6.3,20.8,6,21,5.6,21l0,0c-0.4,0-0.8-0.2-1.1-0.4l-1.3-1.3C3,19,3,18.7,3.1,18.5s0.5-0.2,0.7,0l1.3,1.3
	C5.3,19.9,5.4,20,5.6,20s0.3-0.1,0.4-0.2l2.5-2.5C8.7,17.1,9,17.1,9.2,17.3L9.2,17.3z"/>
</svg>
