<?xml version="1.0" encoding="utf-8"?>
<!-- Generator: Adobe Illustrator 19.2.1, SVG Export Plug-In . SVG Version: 6.00 Build 0)  -->
<svg version="1.1" id="Layer_1" xmlns="http://www.w3.org/2000/svg" xmlns:xlink="http://www.w3.org/1999/xlink" x="0px" y="0px"
	 viewBox="0 0 24 24" style="enable-background:new 0 0 24 24;" xml:space="preserve">
<style type="text/css">
	.st0{fill:#6A64F1;}
</style>
<path class="st0" d="M13,6.2c0.2,0.2,0.2,0.5,0,0.7l-4.7,4.6c-0.7,0.7-1.9,0.7-2.6,0L3.1,9C3,8.8,2.9,8.5,3.1,8.3
	c0.2-0.2,0.5-0.2,0.7,0l2.5,2.5c0.3,0.3,0.9,0.3,1.2,0l4.7-4.6C12.5,6,12.8,6,13,6.2z M24,6.5v6c0,1.9-1.6,3.5-3.5,3.5H16v3.5
	c0,2.5-2,4.5-4.5,4.5h-7C2,24,0,22,0,19.5v-15C0,2,2,0,4.5,0h7c2,0,3.6,1.3,4.2,3h4.8C22.4,3,24,4.6,24,6.5z M15,18H1v1.5
	C1,21.4,2.6,23,4.5,23h7c1.9,0,3.5-1.6,3.5-3.5V18z M15,4.5C15,2.6,13.4,1,11.5,1h-7C2.6,1,1,2.6,1,4.5V17h14V4.5z M23,8h-7v7h4.5
	c1.4,0,2.5-1.1,2.5-2.5V8z M23,6.5C23,5.1,21.9,4,20.5,4h-4.6C16,4.2,16,4.3,16,4.5V7h7V6.5z M6.5,21h3c0.3,0,0.5-0.2,0.5-0.5
	S9.8,20,9.5,20h-3C6.2,20,6,20.2,6,20.5S6.2,21,6.5,21z"/>
</svg>
