<?xml version="1.0" encoding="utf-8"?>
<!-- Generator: Adobe Illustrator 19.2.1, SVG Export Plug-In . SVG Version: 6.00 Build 0)  -->
<svg version="1.1" id="Layer_1" xmlns="http://www.w3.org/2000/svg" xmlns:xlink="http://www.w3.org/1999/xlink" x="0px" y="0px"
	 viewBox="0 0 24 24" style="enable-background:new 0 0 24 24;" xml:space="preserve">
<style type="text/css">
	.st0{fill:#6A64F1;}
</style>
<path class="st0" d="M7.5,13C10,13,12,11,12,8.5S10,4,7.5,4S3,6,3,8.5S5,13,7.5,13z M7.5,5C9.4,5,11,6.6,11,8.5S9.4,12,7.5,12
	S4,10.4,4,8.5S5.6,5,7.5,5z M15,22.5v1c0,0.3-0.2,0.5-0.5,0.5S14,23.8,14,23.5v-1c0-3.6-2.9-6.5-6.5-6.5S1,18.9,1,22.5v1
	C1,23.8,0.8,24,0.5,24S0,23.8,0,23.5v-1C0,18.4,3.4,15,7.5,15S15,18.4,15,22.5z M24,17.9v0.6c0,0.3-0.2,0.5-0.5,0.5S23,18.8,23,18.5
	v-0.6c0-3.2-2.6-5.9-5.9-5.9c-1.4,0-2.5,0.3-3.4,0.9c-0.2,0.2-0.5,0.1-0.7-0.1s-0.1-0.5,0.1-0.7c1-0.7,2.4-1.1,3.9-1.1
	C20.9,11,24,14.1,24,17.9z M17.5,9C20,9,22,7,22,4.5S20,0,17.5,0S13,2,13,4.5S15,9,17.5,9z M17.5,1C19.4,1,21,2.6,21,4.5
	S19.4,8,17.5,8S14,6.4,14,4.5S15.6,1,17.5,1z"/>
</svg>
